<svg width="30" height="27" viewBox="0 0 30 27" fill="none" xmlns="http://www.w3.org/2000/svg">
<g clip-path="url(#clip0_702_600)">
<path d="M4.10463 20.4105C5.20475 21.1738 6.9884 21.1738 8.08855 20.4105C9.18862 19.6472 9.18862 18.4096 8.08855 17.6463C6.9884 16.883 5.20475 16.883 4.10463 17.6463C3.00451 18.4096 3.00451 19.6472 4.10463 20.4105Z" fill="#0EA5E9"/>
<path d="M15.523 10.0448C17.1732 11.1897 19.8486 11.1897 21.4989 10.0448C23.149 8.89976 23.149 7.04343 21.4989 5.89846C19.8486 4.75349 17.1732 4.75349 15.523 5.89846C13.8729 7.04343 13.8729 8.89976 15.523 10.0448Z" fill="#0EA5E9"/>
<path d="M9.46178 15.2277C10.8369 16.1817 13.0665 16.1817 14.4416 15.2277C15.8168 14.2735 15.8168 12.7265 14.4416 11.7724C13.0665 10.8183 10.8369 10.8183 9.46178 11.7724C8.08663 12.7265 8.08663 14.2735 9.46178 15.2277Z" fill="#020617"/>
<path d="M0.618818 14.5366C1.44391 15.1091 2.78164 15.1091 3.60674 14.5366C4.43182 13.9641 4.43182 13.036 3.60674 12.4634C2.78164 11.8909 1.44391 11.8909 0.618818 12.4634C-0.206273 13.036 -0.206272 13.9641 0.618818 14.5366Z" fill="#0EA5E9"/>
<path d="M9.46178 4.17085C10.8369 5.12498 13.0665 5.12498 14.4416 4.17085C15.8168 3.21671 15.8168 1.66974 14.4416 0.715606C13.0665 -0.238535 10.8369 -0.238536 9.46178 0.715606C8.08663 1.66974 8.08663 3.21671 9.46178 4.17085Z" fill="#0EA5E9"/>
<path d="M4.10463 9.35371C5.20475 10.117 6.9884 10.117 8.08855 9.35371C9.18862 8.59039 9.18862 7.3528 8.08855 6.58951C6.9884 5.8262 5.20475 5.8262 4.10463 6.58951C3.00451 7.3528 3.00452 8.59039 4.10463 9.35371Z" fill="#020617"/>
<path d="M9.46178 26.2844C10.8369 27.2385 13.0665 27.2385 14.4416 26.2844C15.8168 25.3303 15.8168 23.7833 14.4416 22.8292C13.0665 21.8751 10.8369 21.8751 9.46178 22.8292C8.08663 23.7833 8.08663 25.3303 9.46178 26.2844Z" fill="#0EA5E9"/>
<path d="M22.7864 15.5732C24.4366 16.7181 27.1121 16.7181 28.7623 15.5732C30.4125 14.4282 30.4125 12.5718 28.7623 11.4269C27.1121 10.2819 24.4366 10.2819 22.7864 11.4269C21.1363 12.5718 21.1363 14.4282 22.7864 15.5732Z" fill="#0EA5E9"/>
<path d="M15.523 21.1015C17.1732 22.2465 19.8486 22.2465 21.4989 21.1015C23.149 19.9565 23.149 18.1002 21.4989 16.9552C19.8486 15.8103 17.1732 15.8103 15.523 16.9552C13.8729 18.1002 13.8729 19.9565 15.523 21.1015Z" fill="#020617"/>
</g>
<defs>
<clipPath id="clip0_702_600">
<rect width="30" height="27" fill="white"/>
</clipPath>
</defs>
</svg>
