<svg width="125" height="43" fill="none" xmlns="http://www.w3.org/2000/svg"><g clip-path="url(#a)"><path d="M4.105 28.41c1.1.764 2.883.764 3.984 0 1.1-.763 1.1-2 0-2.764-1.1-.763-2.884-.763-3.984 0-1.1.764-1.1 2.001 0 2.764ZM15.523 18.045c1.65 1.145 4.326 1.145 5.976 0 1.65-1.145 1.65-3.002 0-4.147-1.65-1.144-4.326-1.144-5.976 0-1.65 1.145-1.65 3.002 0 4.147Z" fill="#0EA5E9"/><path d="M9.462 23.228c1.375.954 3.604.954 4.98 0 1.375-.955 1.375-2.502 0-3.456-1.376-.954-3.605-.954-4.98 0-1.375.955-1.375 2.502 0 3.456Z" fill="#fff"/><path d="M.619 22.537c.825.572 2.163.572 2.988 0 .825-.573.825-1.501 0-2.074-.825-.572-2.163-.572-2.988 0-.825.573-.825 1.501 0 2.074ZM9.462 12.17c1.375.955 3.604.955 4.98 0 1.375-.953 1.375-2.5 0-3.454-1.376-.955-3.605-.955-4.98 0-1.375.954-1.375 2.5 0 3.455Z" fill="#0EA5E9"/><path d="M4.105 17.354c1.1.763 2.883.763 3.984 0 1.1-.764 1.1-2.001 0-2.764-1.1-.764-2.884-.764-3.984 0-1.1.763-1.1 2 0 2.764Z" fill="#fff"/><path d="M9.462 34.284c1.375.955 3.604.955 4.98 0 1.375-.954 1.375-2.5 0-3.455-1.376-.954-3.605-.954-4.98 0-1.375.954-1.375 2.501 0 3.455ZM22.786 23.573c1.65 1.145 4.326 1.145 5.976 0 1.65-1.145 1.65-3.001 0-4.146s-4.325-1.145-5.976 0c-1.65 1.145-1.65 3.001 0 4.146Z" fill="#0EA5E9"/><path d="M15.523 29.102c1.65 1.145 4.326 1.145 5.976 0 1.65-1.146 1.65-3.002 0-4.147-1.65-1.145-4.326-1.145-5.976 0-1.65 1.145-1.65 3.002 0 4.147Z" fill="#fff"/></g><path d="M56.914 27.998c0 .094-.035.158-.105.193-.059.036-.07.118-.036.247a.382.382 0 0 0-.246.14.316.316 0 0 1-.246.123c-.058 0-.105-.03-.14-.088a.269.269 0 0 1-.141.176.977.977 0 0 1-.193.088c-.07.023-.141.053-.211.088a.267.267 0 0 0-.14.158h-.089a.387.387 0 0 0-.334.176c-.07.117-.158.176-.264.176-.035 0-.058-.006-.07-.018-.058.012-.082.047-.07.105.012.07-.006.118-.053.141h-.088c-.304 0-.615.065-.931.194-.317.128-.639.275-.967.439-.317.164-.645.316-.985.457a3.511 3.511 0 0 1-1.002.299.662.662 0 0 1-.263.158c-.094.047-.2.082-.317.105l-.351.07a.832.832 0 0 0-.281.159 4.621 4.621 0 0 0-.88.158c-.292.082-.585.158-.878.229a6.87 6.87 0 0 1-.88.193 3.272 3.272 0 0 1-.896.053c-.093.07-.199.123-.316.158a1.537 1.537 0 0 0-.299.176c-.48-.07-.96-.123-1.441-.158a7.047 7.047 0 0 1-1.389-.246c0-.036-.012-.06-.035-.07a.689.689 0 0 0-.088-.036c-.023 0-.047-.012-.07-.035-.024-.012-.024-.041 0-.088a.905.905 0 0 1-.282.053.78.78 0 0 1-.351-.088 49.92 49.92 0 0 0-.352-.194c-.117-.07-.24-.14-.369-.21a1.007 1.007 0 0 0-.422-.088 5.755 5.755 0 0 1-.263-.282.973.973 0 0 1-.158-.351.36.36 0 0 0-.159 0 .518.518 0 0 1-.123.017c-.07 0-.105-.023-.105-.07-.246-.176-.422-.363-.528-.562-.105-.2-.222-.428-.351-.686a.666.666 0 0 0-.14-.21.442.442 0 0 1-.106-.177 1.305 1.305 0 0 1-.088-.369 41.266 41.266 0 0 0-.035-.369 1.28 1.28 0 0 0-.053-.37.799.799 0 0 0-.158-.35c.023-.446.07-.891.14-1.337.082-.445.182-.89.3-1.335.046-.2.099-.393.157-.58.059-.188.112-.381.159-.58.011-.071.029-.118.052-.141a.373.373 0 0 1 .088-.07l.07-.053a.223.223 0 0 0 .053-.106l.14-.598c.095-.386.218-.761.37-1.125.152-.363.358-.697.615-1.002.024-.292.088-.568.194-.826.117-.27.246-.527.386-.773.141-.258.282-.51.422-.756s.252-.51.334-.79l-.017-.036c0-.047.023-.07.07-.07a.744.744 0 0 1 .123-.018c.012-.188.053-.346.123-.475.082-.14.164-.27.246-.386.094-.117.176-.24.246-.37.082-.14.13-.304.14-.492.223-.128.411-.287.563-.474.165-.2.317-.399.457-.598.153-.21.311-.41.475-.598.164-.199.363-.357.598-.474.058-.07.076-.17.052-.299.364-.27.739-.51 1.125-.72a6.85 6.85 0 0 0 1.09-.739h.633a.815.815 0 0 1 .51-.176c.14 0 .275.03.404.088.14.059.27.129.387.211.129.07.258.146.387.229.129.07.257.123.386.158.13.176.217.38.264.615.059.223.117.434.176.633a3.96 3.96 0 0 0-.194.984 9.4 9.4 0 0 1-.123.985c-.082.093-.152.199-.21.316-.06.106-.124.217-.194.334-.058.105-.123.21-.193.316a.78.78 0 0 1-.282.229c-.093.34-.24.61-.439.808-.2.2-.393.434-.58.704a.996.996 0 0 1-.563.175.903.903 0 0 1-.439-.105 1.696 1.696 0 0 1-.352-.299 2.171 2.171 0 0 1-.263-.404 3.766 3.766 0 0 1-.14-.44c.081-.246.21-.457.386-.633l.562-.527c.188-.176.352-.363.492-.562.141-.2.211-.44.211-.721a.156.156 0 0 0-.017-.07v-.07c0-.048.017-.089.053-.124a.706.706 0 0 1 .105-.088l.105-.087a.168.168 0 0 0 .053-.123c0-.047-.023-.094-.07-.141-.445.035-.785.111-1.02.228a1.923 1.923 0 0 0-.527.387c-.129.14-.246.281-.352.422a.794.794 0 0 1-.421.281.68.68 0 0 1-.159.246l-.193.194a1.12 1.12 0 0 0-.193.21.746.746 0 0 0-.088.3h-.317a1.24 1.24 0 0 1-.21.316c-.082.094-.17.187-.264.281-.082.094-.158.2-.229.317a.513.513 0 0 0-.052.351.589.589 0 0 0-.3.229.712.712 0 0 1-.263.263v.106a.661.661 0 0 1-.053.263.404.404 0 0 0-.017.264c-.14.129-.246.293-.317.492a5.488 5.488 0 0 1-.193.528.661.661 0 0 0-.334.334c-.059.14-.088.304-.088.492-.176.175-.334.38-.474.615-.141.234-.27.475-.387.72a14.42 14.42 0 0 0-.299.757 8.365 8.365 0 0 1-.299.72v.51c-.164.188-.281.41-.351.668a2.125 2.125 0 0 1-.282.668 2.16 2.16 0 0 0-.035.387c.012.129.018.258.018.386 0 .141-.012.288-.035.44a1.606 1.606 0 0 1-.123.422c.046.175.082.386.105.633.023.234.065.474.123.72.059.235.14.451.246.65a.825.825 0 0 0 .457.387c.047.258.158.451.334.58.188.141.399.252.633.334.234.082.475.153.72.211.247.07.464.159.651.264a.544.544 0 0 1 .246-.053c.094 0 .176.012.246.035.082.024.17.047.264.07.164-.023.363-.034.598-.034.246 0 .492-.012.738-.036.246-.011.474-.04.685-.087.211-.047.381-.135.51-.264.082 0 .135.023.158.07.035.047.094.07.176.07.082 0 .205-.023.37-.07.163-.035.333-.082.51-.14.175-.047.339-.1.491-.159.164-.058.282-.111.352-.158.035.012.07.018.105.018h.123c.164 0 .317-.03.457-.088a.854.854 0 0 1 .457-.053c.54-.27 1.084-.504 1.635-.703.563-.188 1.131-.357 1.705-.51a.649.649 0 0 1 .246-.228c.106-.047.217-.082.334-.106a1.88 1.88 0 0 1 .352-.07c.117-.023.228-.053.334-.088a.666.666 0 0 0 .176-.123.663.663 0 0 1 .21-.14.97.97 0 0 1 .264-.07l.3-.036c.104-.024.198-.053.28-.088a.483.483 0 0 0 .229-.176c.164.07.328.147.492.229.176.082.322.199.44.351l.017.053Zm13.729-5.203v.123c0 .035-.006.07-.018.105a1.519 1.519 0 0 1-.475.563c-.187.129-.422.193-.703.193-.187 0-.328-.017-.422-.052a2.274 2.274 0 0 1-.334-.194c-.21.024-.45.047-.72.07-.27.012-.54.041-.809.088-.27.036-.527.088-.773.159a1.62 1.62 0 0 0-.598.316 21.116 21.116 0 0 0-.176 2.426c0 .797-.011 1.6-.035 2.408.094.246.158.516.193.809.036.304.059.58.07.826.083.14.147.281.194.422l.14.457c.048.152.1.299.159.44.07.14.158.269.264.386.093 0 .175.006.246.017l.246.07v.106c0 .176.052.305.158.387.106.082.223.17.352.264.035.129.052.252.052.369 0 .199-.047.387-.14.562a.698.698 0 0 1-.422.37c-.117 0-.229-.018-.334-.053a1.539 1.539 0 0 0-.334-.035c-.082 0-.17.011-.264.035a.468.468 0 0 1-.158-.106 1.15 1.15 0 0 0-.123-.105.685.685 0 0 0-.158-.088.332.332 0 0 0-.194-.018 1.342 1.342 0 0 0-.28-.457.523.523 0 0 0-.475-.176.938.938 0 0 0 .017-.21c0-.165-.035-.317-.105-.457a.711.711 0 0 0-.282-.334c-.058-.27-.111-.569-.158-.897a2.044 2.044 0 0 0-.299-.826c0-.34-.035-.668-.105-.985a19.36 19.36 0 0 1-.194-.949c.047-.187.07-.398.07-.633 0-.164-.005-.322-.017-.474a6.68 6.68 0 0 1-.017-.475c0-.164.011-.322.035-.474a1.23 1.23 0 0 1 .176-.475 1.104 1.104 0 0 1-.141-.352 2.152 2.152 0 0 1-.035-.386c0-.2.011-.393.035-.58l.07-.563a.302.302 0 0 0-.123-.017.594.594 0 0 0-.299.07l-.263.123a.816.816 0 0 0-.159-.018h-.158c-.175 0-.351.03-.527.088-.164.047-.31.135-.44.264-.398 0-.796.04-1.195.123-.398.07-.797.158-1.195.264-.387.105-.773.222-1.16.351-.387.117-.774.223-1.16.317a13.801 13.801 0 0 0-.281 2.795v.421c0 .153.011.3.035.44a.562.562 0 0 0 .087.246c.059.082.088.17.088.264a.315.315 0 0 1-.053.193c.083.14.206.264.37.37a1.48 1.48 0 0 1 .457-.089c.21 0 .41.047.597.14.188.106.387.177.598.212a1.902 1.902 0 0 1-.21.474c-.095.164-.153.34-.177.528a.313.313 0 0 1-.14.035h-.106a.17.17 0 0 0-.088.07c-.011.035-.005.106.018.211a1.606 1.606 0 0 1-.492.158 3.553 3.553 0 0 1-.51.07 7.166 7.166 0 0 1-.51.018c-.164 0-.334.006-.51.018a.285.285 0 0 0-.052-.176.265.265 0 0 0-.106-.088c-.047-.012-.1-.03-.158-.053a.47.47 0 0 1-.123-.087.888.888 0 0 1-.229-.334c-.046-.13-.1-.27-.158-.422-.047-.141-.1-.282-.158-.422a2.04 2.04 0 0 0-.21-.387 15.79 15.79 0 0 1-.07-1.512c-.001-.48.016-.949.051-1.406.036-.469.065-.95.088-1.441a.449.449 0 0 0-.369-.141c-.129.012-.258 0-.387-.035a2.641 2.641 0 0 1-.351-.58 1.75 1.75 0 0 1-.14-.686c0-.117.017-.24.052-.369.106-.035.223-.07.352-.105.129-.035.199-.13.21-.282.083.047.182.07.3.07.117 0 .234-.017.351-.052.117-.035.234-.064.351-.088.047-.187.083-.37.106-.545.035-.187.041-.38.018-.58.164-.246.27-.515.316-.808.059-.293.1-.575.123-.844v-.246c0-.082.006-.164.018-.246.023-.13.058-.276.105-.44.047-.164.088-.316.123-.457a3.24 3.24 0 0 0 .106-.633c.023-.199.035-.404.035-.615v-.07c0-.059-.024-.1-.07-.123a.167.167 0 0 1-.07-.141l.017-.035c.047-.375.1-.744.158-1.108.07-.375.164-.744.281-1.107a2.77 2.77 0 0 1-.14-.914c0-.445.07-.873.21-1.283a1.549 1.549 0 0 1-.105-.545c0-.14.006-.281.018-.422.023-.14.029-.281.017-.422a.716.716 0 0 0 .281-.246c.083-.105.176-.193.282-.264.351-.011.644.106.879.352.246.246.369.545.369.896 0 .27-.077.528-.229.774.047.223.07.48.07.773 0 .434-.029.867-.087 1.301a7.058 7.058 0 0 0-.053 1.318c-.07.165-.106.364-.106.598.012.234.006.434-.017.598a4.398 4.398 0 0 1-.106.51 2.41 2.41 0 0 0-.087.492l-.036.808c0 .27-.029.528-.088.774a.782.782 0 0 1-.105.246.876.876 0 0 0-.088.21 3.24 3.24 0 0 0-.053.757 4.06 4.06 0 0 1 0 .755.97.97 0 0 1-.07.247.958.958 0 0 0-.035.263.58.58 0 0 0 .035.176 26.74 26.74 0 0 0 3.182-.475 58.362 58.362 0 0 1 3.181-.58.988.988 0 0 0 .123-.474.796.796 0 0 0-.052-.282c.117-.386.205-.773.263-1.16.07-.398.13-.79.176-1.177.047-.387.088-.774.123-1.16.035-.399.082-.792.14-1.178l.106-.598c.035-.2.082-.393.14-.58l.071-.211a.438.438 0 0 0 .053-.193c0-.059-.035-.1-.106-.123-.058-.024-.088-.053-.088-.088 0-.024.006-.035.018-.035.023-.012.041-.012.053 0a.856.856 0 0 0 .105-.335c.012-.117.018-.234.018-.351a2.85 2.85 0 0 1 .053-.334.774.774 0 0 1 .14-.316.74.74 0 0 0-.07-.229.545.545 0 0 1-.053-.246c-.011-.012-.011-.024 0-.035a1.26 1.26 0 0 0 .035-.264c.012-.082.018-.176.018-.281 0-.14.064-.252.193-.334-.058-.2-.1-.416-.123-.65a6.9 6.9 0 0 1-.035-.686c0-.305.07-.557.211-.756.152-.21.399-.316.738-.316.176 0 .34.035.493.105.164.07.298.17.404.299.058.27.088.521.088.756 0 .164-.012.322-.036.474-.011.141-.017.293-.017.457 0 .13.012.252.035.37.023.105.047.216.07.334a1.735 1.735 0 0 0-.228.545 5.19 5.19 0 0 0-.106.615l-.035.65c0 .211-.006.404-.017.58a9.262 9.262 0 0 1-.176 1.143c-.07.375-.152.75-.246 1.125.035.129.053.246.053.351 0 .211-.03.422-.088.633-.059.2-.076.399-.053.598-.082.21-.135.428-.158.65-.024.211-.041.434-.053.668l-.035.686c-.012.222-.053.44-.123.65a.16.16 0 0 0 .123.106c.07 0 .094.047.07.14.27-.082.557-.117.862-.105h1.388c.176-.012.352-.035.528-.07.175-.047.351-.1.527-.159.187-.07.369-.105.545-.105.246 0 .433.088.562.264a4.382 4.382 0 0 1 .07.773Zm18.035-3.621c0 .668-.047 1.318-.14 1.951a16.409 16.409 0 0 1-.37 1.898.72.72 0 0 0-.281.44c-.035.176-.094.34-.176.492-.07.129-.164.27-.281.422-.118.14-.246.293-.387.457-.14.152-.281.31-.422.475-.14.164-.258.328-.352.492-.351.117-.603.369-.755.756a7.84 7.84 0 0 0-.58.246.745.745 0 0 0-.422.44c-.434.222-.844.48-1.23.773a7.126 7.126 0 0 1-1.231.738.663.663 0 0 1-.211.14c-.07.024-.147.053-.229.088-.07.036-.14.077-.21.123a.363.363 0 0 0-.106.211c-.047 0-.082-.011-.106-.035-.011-.011-.046-.023-.105-.035-.129.07-.188.182-.176.334a.438.438 0 0 0-.193-.035.83.83 0 0 0-.422.123c-.129.094-.24.188-.334.281-.14.07-.305.14-.492.211a.712.712 0 0 0-.387.352c-.047-.047-.117-.07-.21-.07a.748.748 0 0 0-.335.087.863.863 0 0 0-.263.229c-.165 0-.323.023-.475.07a4.83 4.83 0 0 1-.44.158 6.993 6.993 0 0 1-.457.159c-.14.046-.293.07-.457.07-.093 0-.164-.024-.21-.07a.669.669 0 0 0-.176-.123c-.059.046-.164.1-.317.158a.928.928 0 0 1-.316.088c-.13 0-.258-.018-.387-.053a6.727 6.727 0 0 1-.369-.123l-.37-.123a1.895 1.895 0 0 0-.386-.07 4.114 4.114 0 0 0-.387-.3.514.514 0 0 0-.422-.087 1.264 1.264 0 0 0-.263-.457 2.351 2.351 0 0 0-.404-.352 1.14 1.14 0 0 0-.124-.07.22.22 0 0 1-.087-.053.451.451 0 0 1-.159-.21c-.047-.106-.1-.16-.158-.16a.135.135 0 0 0-.052.018c-.012.012-.024.018-.036.018a1.288 1.288 0 0 0-.105-.299.322.322 0 0 0-.246-.193 5.077 5.077 0 0 1-.194-.914c-.035-.305-.082-.61-.14-.914a17.291 17.291 0 0 0-.088-.334 2.276 2.276 0 0 1-.035-.37c0-.175.023-.386.07-.632.059-.246.106-.463.14-.65.141-.68.329-1.337.563-1.97.234-.644.487-1.282.756-1.915.281-.633.568-1.26.861-1.881.293-.621.569-1.254.826-1.899.047 0 .077-.011.088-.035l.053-.088a.846.846 0 0 0 .053-.088c.023-.023.064-.035.123-.035v-.052a.22.22 0 0 1 .035-.176c.047-.047.059-.123.035-.229a3.22 3.22 0 0 0 .475-.703c.129-.27.258-.533.387-.79.14-.259.287-.51.439-.757.152-.246.346-.457.58-.632v-.124a.445.445 0 0 1 0-.175.213.213 0 0 1 .123-.141c.211-.21.387-.422.528-.633.14-.21.28-.416.421-.615.153-.211.317-.404.493-.58.187-.188.421-.357.703-.51a.562.562 0 0 0 .28-.264.523.523 0 0 1 .23-.246.313.313 0 0 1 .14-.035.628.628 0 0 0 .158-.053c.2-.058.399-.129.598-.21.2-.094.41-.141.633-.141.281 0 .492.082.633.246.152.152.27.34.351.563.094.222.17.457.229.703.058.246.152.457.28.632.352.024.71.065 1.073.123.363.047.68.194.95.44a.196.196 0 0 0 .087.018c.059 0 .088-.024.088-.07 0-.048.03-.071.088-.071h.053c.351.21.685.445 1.002.703.328.246.65.504.966.773l.176.141c.07.035.13.082.176.14.059.071.111.153.158.247.059.094.112.176.159.246a9.86 9.86 0 0 1 1.23 3.656c.023.117.035.229.035.334 0 .106.023.176.07.211.047.023.07.082.07.176Zm-1.354.896c0-.468-.058-.92-.176-1.353.059-.024.094-.059.106-.106a.471.471 0 0 0 .035-.175v-.088l-.21-.387a1.45 1.45 0 0 0-.106-.457 3.233 3.233 0 0 0-.176-.422l-.211-.422a1.87 1.87 0 0 1-.123-.457 3.264 3.264 0 0 1-.51-.474c-.14-.188-.27-.381-.387-.58a1.007 1.007 0 0 0-.228-.07c-.07-.013-.094-.077-.07-.194a2.339 2.339 0 0 1-.58-.246 7.099 7.099 0 0 1-.493-.387c-.27-.059-.539-.129-.808-.211a2.3 2.3 0 0 0-.791-.14c-.188 0-.37.034-.545.105.058.094.088.2.088.316 0 .106.011.211.035.317.375.093.603.322.685.685a.594.594 0 0 0-.158.14l-.14.141a.728.728 0 0 1-.141.106.402.402 0 0 1-.211.053.727.727 0 0 1-.387-.088c-.082-.059-.216-.07-.404-.035a12.77 12.77 0 0 1-.58-.545 3.436 3.436 0 0 0-.633-.528.844.844 0 0 0-.176-.316 2.452 2.452 0 0 0-.228-.264l-.211-.281a.711.711 0 0 1-.088-.352c0-.082.006-.14.017-.175a.556.556 0 0 0-.158-.035.398.398 0 0 0-.263.105.762.762 0 0 1-.282.123 2.25 2.25 0 0 1-.404.738c-.176.211-.357.416-.545.616-.187.199-.363.41-.527.632-.153.211-.264.475-.334.791-.375.47-.72 1.002-1.037 1.6a8.851 8.851 0 0 0-.721 1.723c-.27.304-.48.627-.633.966-.152.34-.24.715-.263 1.125a.404.404 0 0 0-.141.141l-.176.352a.286.286 0 0 1-.123.14v.088a.663.663 0 0 1-.053.264 1.97 1.97 0 0 1-.123.21l-.105.212a.402.402 0 0 0-.053.21c0 .094.024.188.07.282a.328.328 0 0 0-.263.21.833.833 0 0 1-.158.282l-.141 1.143c-.047.386-.07.767-.07 1.142 0 .434.046.873.14 1.319.106.105.2.222.281.351.082.13.165.252.247.37.093.116.193.222.298.316a.861.861 0 0 0 .422.158c0 .082.018.14.053.176a.41.41 0 0 1 .088.14c.246.082.504.147.773.194.27.058.54.088.809.088.188 0 .375-.024.563-.07.199-.048.363-.141.492-.282a4.852 4.852 0 0 0 1.775-.422 12.532 12.532 0 0 0 1.635-.844h.369c.129-.175.287-.316.475-.422.187-.117.38-.222.58-.316a.785.785 0 0 1 .14-.07.79.79 0 0 0 .14-.07c.13-.094.259-.2.388-.317.14-.117.28-.229.422-.334.234-.176.474-.346.72-.51.246-.164.48-.34.703-.527.235-.188.452-.387.65-.598.212-.222.387-.468.528-.738.07 0 .123-.018.158-.053a.551.551 0 0 0 .106-.14 1.15 1.15 0 0 1 .105-.123.316.316 0 0 1 .194-.053c0-.106.017-.194.052-.264.047-.082.094-.152.14-.21.06-.071.112-.136.16-.194a.87.87 0 0 0 .157-.229v-.492c.188-.305.323-.627.405-.967.093-.34.14-.685.14-1.037Zm23.555 9.65c-.024.235-.106.417-.246.546a.738.738 0 0 1-.545.21c-.117 0-.229-.017-.334-.052a2.4 2.4 0 0 1-.791.404c-.305.094-.592.188-.861.281a8.68 8.68 0 0 1-.967-.088 4.568 4.568 0 0 0-.985-.035.929.929 0 0 0-.369-.158 4.207 4.207 0 0 0-.404-.053c-.129 0-.258-.017-.387-.052a.806.806 0 0 1-.351-.246h-.879c-.082 0-.205-.041-.369-.123-.153-.07-.329-.147-.528-.229a6.101 6.101 0 0 0-.615-.229 1.893 1.893 0 0 0-.598-.105h-.105a1.423 1.423 0 0 0-.457-.246 29.244 29.244 0 0 0-.51-.14 6.468 6.468 0 0 1-.51-.124 1.402 1.402 0 0 1-.421-.193 4.086 4.086 0 0 0-.405-.246.781.781 0 0 0-.474-.123 4.83 4.83 0 0 0-.704-.334 13.031 13.031 0 0 0-.72-.264l-.721-.264a6.365 6.365 0 0 1-.703-.334.217.217 0 0 1-.123 0 .517.517 0 0 0-.123-.017c-.07 0-.112.023-.123.07a1.259 1.259 0 0 0-.282-.21 2.202 2.202 0 0 1-.28-.212l-.141.035h-.141c-.105 0-.21-.011-.316-.035a2.57 2.57 0 0 1-.282-.088 2.704 2.704 0 0 0-.21.791c-.036.293-.065.598-.088.915-.012.304-.03.609-.053.914a3.754 3.754 0 0 1-.158.86c.023.095.035.188.035.282v.299c0 .2.03.357.088.475a11.8 11.8 0 0 1-.07.298c-.012.094-.03.188-.053.282.011.128.017.246.017.351.012.117.018.24.018.37v.298c0 .106-.012.211-.035.317-.118.07-.235.134-.352.193-.117.07-.234.152-.352.246-.082-.152-.222-.24-.421-.264a.59.59 0 0 0-.106.229c-.012.105-.064.158-.158.158a98.532 98.532 0 0 0-.404-.316 2.172 2.172 0 0 1-.352-.37.196.196 0 0 1-.017-.087c0-.059.011-.112.035-.159a.312.312 0 0 0 .035-.14c0-.14-.018-.264-.053-.37a6.074 6.074 0 0 1-.07-.878c0-.2.011-.393.035-.58.035-.188.094-.381.176-.58.129-.34.216-.698.263-1.073.059-.375.1-.75.123-1.125.024-.386.036-.773.036-1.16.011-.387.035-.756.07-1.107a1.262 1.262 0 0 0-.299-.44c-.105-.117-.158-.299-.158-.545 0-.222.07-.392.21-.51.141-.128.265-.28.37-.456-.023-.07-.006-.118.053-.141l.21-1.846c.012-.129.03-.27.053-.422a3.17 3.17 0 0 0 .07-.421c.024-.27.036-.534.036-.791 0-.258.011-.516.035-.774.059-.574.111-1.143.158-1.705.059-.563.088-1.125.088-1.688 0-.269-.012-.539-.035-.808a4.775 4.775 0 0 0-.106-.809c-.199.059-.421.123-.667.194a1.337 1.337 0 0 0-.598.316h-.14c-.305 0-.593.059-.862.176-.258.117-.522.228-.791.334a1.4 1.4 0 0 1-.352.123c-.117.012-.24.035-.369.07a.456.456 0 0 0-.193.106.748.748 0 0 1-.194.123l-.298.07c-.082.023-.118.076-.106.158.012.082-.017.135-.088.158a.333.333 0 0 1-.246.088 2.386 2.386 0 0 0-.246-.017h-.07a9.2 9.2 0 0 1-.844.545c-.281.14-.61.234-.984.28l-.387.247a.801.801 0 0 1-.44.123.632.632 0 0 1-.316-.07 1.586 1.586 0 0 1-.21-.475 1.151 1.151 0 0 0-.282-.457.48.48 0 0 0 .123-.228c.012-.106.03-.2.053-.282.351-.152.709-.299 1.072-.44.352-.14.691-.31 1.02-.509a.897.897 0 0 0 .475-.035c.093-.035.186-.076.28-.123.094-.047.188-.088.281-.123.094-.035.206-.047.334-.035.399-.223.82-.405 1.266-.545.445-.14.867-.334 1.266-.58a.25.25 0 0 1 .14.035.312.312 0 0 0 .141.035c.047 0 .076-.006.088-.018a.533.533 0 0 1 .281-.193c.117-.047.234-.082.352-.105.129-.035.246-.077.351-.123a.423.423 0 0 0 .229-.264c.058.047.146.07.264.07.199 0 .38-.04.544-.123.176-.082.364-.123.563-.123.047 0 .088.012.123.035a.58.58 0 0 0 .14.018c.094 0 .141-.03.141-.088a.272.272 0 0 1 .106-.158 72.808 72.808 0 0 1 2.127-.352 14.79 14.79 0 0 1 2.162-.158.62.62 0 0 1 .351-.105.62.62 0 0 1 .352.105 10.307 10.307 0 0 1 1.195-.07c.457 0 .926.029 1.406.088.481.058.955.152 1.424.28.481.118.938.282 1.371.493.434.2.838.44 1.213.72.035.106.082.212.141.317a.662.662 0 0 0 .228.246c0 .024-.005.041-.017.053v.053c0 .129.035.252.105.369a.717.717 0 0 1 .123.422c0 .164-.029.328-.088.492a1.426 1.426 0 0 0-.052.492c-.129.188-.241.357-.334.51a1.559 1.559 0 0 0-.159.58c-.21.21-.398.445-.562.703-.164.246-.334.492-.51.738a4.215 4.215 0 0 1-.562.65 2.37 2.37 0 0 1-.756.475.982.982 0 0 1-.141.387h-.369a.393.393 0 0 1-.176.211l-.246.14a.775.775 0 0 0-.211.176.536.536 0 0 0-.07.3.196.196 0 0 0-.088-.018c-.117 0-.258.058-.422.175-.152.118-.275.211-.369.282a6.72 6.72 0 0 1-.615.386 1.74 1.74 0 0 0-.528.493c-.468.199-.914.433-1.335.703a6.043 6.043 0 0 1-1.372.615 2.1 2.1 0 0 1-.667.474 8.198 8.198 0 0 0-.721.352v.053c0 .094.035.187.105.281.07.082.153.158.246.229.094.058.194.1.3.123a.637.637 0 0 0 .298 0c.234.21.504.38.809.51.304.128.62.245.949.351.328.105.65.217.967.334.316.117.609.264.879.44h.421c.27.234.586.41.95.527.375.117.732.222 1.072.316.141.13.316.229.527.299.223.059.434.088.633.088h.105a.4.4 0 0 0 .124-.018v.035c0 .059.017.1.052.123l.106.036c.047 0 .088.011.123.035a.168.168 0 0 1 .105.07h.176c.246 0 .481.053.703.158.223.094.457.141.703.141a.68.68 0 0 0 .246-.035c.071.023.123.07.159.14.035.07.082.13.14.176.082-.012.158-.023.229-.035h.211c.257 0 .498.03.72.088.223.059.452.146.686.264a9.097 9.097 0 0 1 1.107-.405c.364-.105.75-.158 1.16-.158v.035c0 .14.036.27.106.387.082.129.152.258.211.387Zm-6.733-14.027a.569.569 0 0 0-.087-.334.665.665 0 0 0-.194-.21 2.23 2.23 0 0 0-.263-.194 1.052 1.052 0 0 1-.229-.228c-.305-.094-.603-.2-.896-.317a8.04 8.04 0 0 0-.897-.299 6.34 6.34 0 0 0-.457-.088 2.03 2.03 0 0 0-.457-.052h-.387l-.228-.036a1.396 1.396 0 0 0-.211-.052 7.02 7.02 0 0 0-.967-.07c-.305 0-.61.011-.914.035l-.914.07a4.477 4.477 0 0 1-.404.018c-.141 0-.27.011-.387.035a1.28 1.28 0 0 0-.246.088 6.167 6.167 0 0 0-.334.123 4.189 4.189 0 0 0-.352.123c-.105.047-.199.082-.281.105.012.082.018.164.018.246v.229c0 .175-.006.351-.018.527a4.055 4.055 0 0 1-.07.527c-.012.07-.03.141-.053.211a1.39 1.39 0 0 0-.053.211 1.627 1.627 0 0 0-.035.352v.334c-.023.27-.04.533-.053.79-.011.259-.029.522-.052.792-.07.773-.147 1.54-.229 2.303a37.34 37.34 0 0 0-.14 2.302 5.126 5.126 0 0 0 1.107-.369c.352-.164.697-.34 1.037-.527.34-.2.68-.393 1.02-.58.34-.188.697-.346 1.072-.475.094-.129.205-.234.334-.316.14-.082.258-.188.351-.317.117 0 .205-.023.264-.07a.48.48 0 0 1 .228-.123 27.039 27.039 0 0 1 1.723-1.389 21.217 21.217 0 0 0 1.688-1.388 1.62 1.62 0 0 1 .228-.475c.117-.164.229-.328.334-.492a5.14 5.14 0 0 0 .281-.492c.082-.164.123-.34.123-.528Zm20.338-5.906c0 .106-.005.211-.017.316 0 .106-.006.206-.018.3-.035.058-.105.081-.211.07a1.897 1.897 0 0 0-.228-.018.345.345 0 0 0-.158.035c-.036.012-.053.047-.053.106 0 .07.006.117.017.14a21.362 21.362 0 0 0-.298-.035.587.587 0 0 1-.282-.105 3.157 3.157 0 0 0-.474.14 6.5 6.5 0 0 0-.422.194c-.141.07-.287.135-.44.193-.152.059-.31.094-.474.106a.972.972 0 0 1-.405.263 6.43 6.43 0 0 1-.509.158c-.176.047-.34.106-.492.176a.802.802 0 0 0-.37.281 2.294 2.294 0 0 0-.738.194c-.234.105-.469.217-.703.334-.223.117-.451.228-.686.334a2.673 2.673 0 0 1-.755.21.881.881 0 0 1-.264.176 7.251 7.251 0 0 1-.299.141 2.325 2.325 0 0 0-.299.123.605.605 0 0 0-.228.194h-.035c-.047 0-.082-.012-.106-.036-.023-.023-.058-.035-.105-.035-.036 0-.059.006-.071.018-.281.129-.562.263-.843.404-.282.14-.575.276-.879.404a82.73 82.73 0 0 1-1.811.721c-.609.234-1.195.521-1.758.861-.129.47-.234.95-.316 1.442a5.32 5.32 0 0 1-.44 1.389v.826a2.176 2.176 0 0 0-.228.738c-.035.27-.053.527-.053.773v.264c.012.07.018.146.018.229.34-.094.668-.2.984-.317.328-.117.656-.223.985-.316.164-.059.328-.1.492-.123.176-.024.345-.065.509-.123.129-.035.264-.082.405-.141.14-.07.275-.135.404-.193.352-.153.709-.287 1.072-.405a7.681 7.681 0 0 1 1.143-.263c.117-.094.246-.182.387-.264a.829.829 0 0 1 .422-.123c.105 0 .193.018.263.053.199-.117.434-.223.703-.317.27-.093.522-.129.756-.105a.393.393 0 0 1 .211-.158.664.664 0 0 1 .264-.053c.047 0 .088.006.123.017h.158c.117-.082.246-.14.387-.175a5.27 5.27 0 0 1 .422-.088 4.11 4.11 0 0 0 .404-.088 1.04 1.04 0 0 0 .369-.211.641.641 0 0 1 .387.14c.105.083.193.182.263.3.071.117.129.24.176.369.047.128.106.252.176.369a.596.596 0 0 1-.105.228c-.047.047-.1.094-.159.14a2.04 2.04 0 0 0-.158.142.331.331 0 0 0-.088.193c-.41 0-.808.058-1.195.176-.375.117-.75.252-1.125.404-.363.152-.738.299-1.125.44-.375.128-.762.21-1.16.245a.636.636 0 0 1-.229.141l-.263.088a.811.811 0 0 0-.229.105.335.335 0 0 0-.158.176.506.506 0 0 0-.229-.053 1.17 1.17 0 0 0-.58.159 1.266 1.266 0 0 1-.633.158.708.708 0 0 1-.193-.018.501.501 0 0 1-.264.229 2.43 2.43 0 0 1-.351.123 2.037 2.037 0 0 0-.352.105.506.506 0 0 0-.246.246.389.389 0 0 0-.123-.017h-.105c-.188 0-.405.035-.651.105-.234.059-.404.176-.509.352a1.039 1.039 0 0 0-.247-.035.901.901 0 0 0-.439.105 3.154 3.154 0 0 0-.387.211l-.386.246c-.129.082-.27.14-.422.176a3.97 3.97 0 0 0-.633 1.494 16.381 16.381 0 0 0-.264 1.758l-.14 1.81a8.679 8.679 0 0 1-.282 1.67c.071.188.123.387.159.598.035.211.064.422.087.633l.071.668c.023.223.064.434.123.633.058.246.17.463.334.65.176.2.299.422.369.668a.89.89 0 0 0 .176.018c.07.011.14.017.211.017.422 0 .791-.082 1.107-.246a4.31 4.31 0 0 0 .914-.615c.281-.234.551-.492.809-.774.269-.27.556-.51.861-.72h.334c.082-.094.152-.194.211-.3.059-.105.123-.204.193-.298a1.26 1.26 0 0 1 .246-.246.958.958 0 0 1 .352-.123.63.63 0 0 1 .246-.404.712.712 0 0 0 .264-.422.193.193 0 0 0 .088.017c.093 0 .164-.023.211-.07l.263-.246c.094-.094.194-.188.299-.281.117-.082.229-.164.334-.246l1.02-.739c.339-.234.65-.51.931-.826.012.012.03.018.053.018.094 0 .158-.03.193-.088.035-.059.117-.076.246-.053a4.49 4.49 0 0 0 .194-.316c.058-.117.105-.24.14-.37l.563.07c.187.024.375.036.562.036h.159a.636.636 0 0 0 .158-.053c.14.223.217.463.228.721.012.246.041.492.088.738h-.053c0-.011-.011-.017-.035-.017a.28.28 0 0 0-.175.07c-.047.035-.1.082-.159.14l-.175.176a1.545 1.545 0 0 1-.159.141 2.63 2.63 0 0 1-.404.211c-.141.07-.275.14-.404.21-.129.071-.252.153-.369.247a1.177 1.177 0 0 0-.282.387c-.234.093-.463.193-.685.299-.211.105-.416.216-.615.334a2.105 2.105 0 0 0-.159.175.61.61 0 0 0-.105.194c-.316.105-.58.263-.791.474-.199.211-.404.44-.615.686l-.018-.018c-.082 0-.135.03-.158.088-.012.059-.076.076-.193.053a7.807 7.807 0 0 1-.704.685 45.29 45.29 0 0 1-.755.633l-.774.633a8.216 8.216 0 0 0-.721.703 2.872 2.872 0 0 0-.439.176.685.685 0 0 0-.316.316h-.053c-.129 0-.223.03-.281.088a8.438 8.438 0 0 0-.176.229c-.246.058-.498.123-.756.193s-.522.106-.791.106c-.188 0-.369-.036-.545-.106a2.634 2.634 0 0 1-.492-.281 4.108 4.108 0 0 1-.44-.352 423.25 423.25 0 0 1-.369-.369 5.842 5.842 0 0 0-.281-.738 1.813 1.813 0 0 1-.158-.72c0-.06.006-.118.017-.177a.305.305 0 0 0 .035-.14c0-.082-.029-.117-.087-.106-.047.012-.082-.017-.106-.088a3.57 3.57 0 0 1-.053-.404c0-.14-.011-.275-.035-.404-.035-.27-.082-.545-.14-.826a16.84 16.84 0 0 0-.159-.826.225.225 0 0 0 .106-.124l.105-.14c-.035-.094-.07-.2-.105-.317a1.503 1.503 0 0 1-.035-.334c0-.234.088-.41.263-.527a.26.26 0 0 0-.07-.193c-.035-.035-.053-.1-.053-.194 0-.023.006-.088.018-.193.023-.117.047-.246.07-.387.035-.14.065-.275.088-.404.024-.129.041-.217.053-.264.082-.539.152-1.066.211-1.582.058-.527.14-1.054.246-1.582a1.184 1.184 0 0 0-.457-.21c-.176-.06-.299-.136-.369-.23a.978.978 0 0 1-.141-.316 1.307 1.307 0 0 1-.053-.334c0-.34.135-.609.405-.808.269-.211.556-.334.861-.37.152-.41.264-.826.334-1.247.082-.434.146-.868.193-1.301l.141-1.319c.047-.445.117-.884.211-1.318h-.106c-.234 0-.462.035-.685.106-.223.07-.451.105-.686.105h-.035c-.34-.27-.51-.592-.51-.967 0-.222.047-.445.141-.668.188-.07.357-.164.51-.281l.457-.351a4.05 4.05 0 0 1 .492-.335c.164-.093.346-.152.545-.175.023-.34.082-.68.176-1.02.093-.34.14-.68.14-1.02 0-.07-.006-.14-.017-.21 0-.07-.012-.14-.035-.211a.802.802 0 0 0 .158-.334c.035-.117.053-.24.053-.37 0-.14-.012-.275-.036-.404a4.132 4.132 0 0 0-.052-.404c.105-.047.187-.094.246-.14.058-.06.111-.112.158-.159a.92.92 0 0 1 .211-.123.92.92 0 0 1 .351-.053c.223 0 .411.047.563.141.164.082.305.193.422.334.117.14.217.299.299.475.093.176.181.351.263.527a.418.418 0 0 1-.158.281.798.798 0 0 0-.211.229l.07.545c.024.164.024.34 0 .527a.753.753 0 0 0 .334.088.838.838 0 0 0 .475-.14.73.73 0 0 0 .316-.387h.036a.12.12 0 0 1 .088.035.216.216 0 0 0 .123.035h.07c.129-.117.269-.205.422-.264.152-.07.31-.135.474-.193.164-.059.323-.117.475-.176.164-.07.316-.158.457-.264.07.036.146.053.229.053a.815.815 0 0 0 .334-.07c.117-.047.228-.094.333-.14.106-.06.217-.112.334-.159.129-.047.264-.07.405-.07.023 0 .053.006.088.017h.088c.082 0 .128-.029.14-.088a.351.351 0 0 0 0-.158c.375-.094.697-.199.967-.316.281-.13.592-.276.932-.44 0-.011.011-.017.035-.017.035 0 .058.017.07.053a.283.283 0 0 1 .018.087.182.182 0 0 0 .105-.175.428.428 0 0 1 .088-.211.834.834 0 0 0 .51-.053c.117-.047.228-.1.334-.158a3.98 3.98 0 0 1 .316-.159.776.776 0 0 1 .317-.07c.093 0 .17.024.228.07.07-.035.141-.082.211-.14a.32.32 0 0 1 .229-.106c.023 0 .041.006.052.018l.071.035c.058-.058.111-.105.158-.14.058-.036.088-.094.088-.176.433-.047.832-.14 1.195-.281a5.093 5.093 0 0 0 1.072-.598c.129.023.252.053.369.088.129.023.258.035.387.035a5.8 5.8 0 0 1 .193.387c.059.129.188.187.387.175a.965.965 0 0 1 .018.194c.012.07.017.135.017.193Z" fill="#0EA5E9"/><defs><clipPath id="a"><path fill="#fff" transform="translate(0 8)" d="M0 0h30v27H0z"/></clipPath></defs></svg>